<svg xmlns="http://www.w3.org/2000/svg" fill="none" viewBox="0 0 40 40" height="40" width="40">
<path fill="#45443F" d="M25.064 27.2H17.616C17.5186 27.2003 17.4232 27.1718 17.342 27.118L14.674 25.338C14.572 25.2621 14.5031 25.1499 14.4814 25.0246C14.4597 24.8993 14.487 24.7705 14.5576 24.6648C14.6282 24.559 14.7367 24.4844 14.8607 24.4563C14.9847 24.4283 15.1148 24.4489 15.224 24.514L17.766 26.21H25.064C25.1316 26.2057 25.1995 26.2153 25.2633 26.2382C25.327 26.2612 25.3855 26.2969 25.4349 26.3433C25.4843 26.3897 25.5237 26.4457 25.5507 26.5079C25.5776 26.5701 25.5915 26.6372 25.5915 26.705C25.5915 26.7728 25.5776 26.8399 25.5507 26.9021C25.5237 26.9643 25.4843 27.0203 25.4349 27.0667C25.3855 27.1131 25.327 27.1488 25.2633 27.1718C25.1995 27.1947 25.1316 27.2043 25.064 27.2Z"></path>
<path fill="#45443F" d="M25.064 27.502H17.616C17.4595 27.5027 17.3063 27.4567 17.176 27.37L14.508 25.6C14.3311 25.4817 14.2084 25.298 14.167 25.0893C14.1255 24.8805 14.1687 24.6639 14.287 24.487C14.4053 24.3101 14.589 24.1874 14.7977 24.146C15.0064 24.1045 15.2231 24.1477 15.4 24.266L17.868 25.912H25.068C25.1799 25.8994 25.2932 25.9106 25.4004 25.9448C25.5077 25.9791 25.6065 26.0355 25.6905 26.1106C25.7744 26.1856 25.8416 26.2775 25.8875 26.3803C25.9335 26.4831 25.9573 26.5944 25.9573 26.707C25.9573 26.8196 25.9335 26.9309 25.8875 27.0337C25.8416 27.1365 25.7744 27.2284 25.6905 27.3034C25.6065 27.3785 25.5077 27.4349 25.4004 27.4692C25.2932 27.5034 25.1799 27.5146 25.068 27.502H25.064ZM14.95 24.734C14.9181 24.7344 14.8867 24.7424 14.8585 24.7573C14.8304 24.7723 14.8062 24.7938 14.788 24.82C14.7607 24.8633 14.7511 24.9155 14.7611 24.9658C14.7712 25.016 14.8001 25.0605 14.842 25.09L17.508 26.87C17.5402 26.8908 17.5777 26.9019 17.616 26.902H25.064C25.0933 26.9087 25.1237 26.9087 25.153 26.902C25.1823 26.8953 25.2097 26.8821 25.2332 26.8633C25.2566 26.8446 25.2756 26.8208 25.2886 26.7938C25.3017 26.7667 25.3084 26.737 25.3084 26.707C25.3084 26.677 25.3017 26.6473 25.2886 26.6202C25.2756 26.5932 25.2566 26.5694 25.2332 26.5506C25.2097 26.5319 25.1823 26.5187 25.153 26.512C25.1237 26.5053 25.0933 26.5053 25.064 26.512H17.676L15.058 24.766C15.0258 24.7452 14.9883 24.7341 14.95 24.734Z"></path>
<path fill="#45443F" d="M25 31.16H18.4C17.1635 31.1607 15.9371 30.9378 14.78 30.502L7.12799 27.624C7.0322 27.5898 6.9493 27.5269 6.8906 27.4439C6.83189 27.3608 6.80025 27.2617 6.79999 27.16V18.384C6.79999 18.253 6.85203 18.1273 6.94468 18.0347C7.03732 17.942 7.16297 17.89 7.29399 17.89H11.664C12.5386 17.888 13.405 18.0593 14.2131 18.394C15.0211 18.7287 15.7549 19.2202 16.372 19.84L18.572 22.04L20.158 22.006H23.868C24.5576 22.006 25.2189 22.2799 25.7065 22.7675C26.1941 23.2551 26.468 23.9164 26.468 24.606C26.4678 25.1873 26.2704 25.7514 25.908 26.206H26.676L30.876 23.326C31.3874 22.9672 32.0131 22.8097 32.6334 22.8835C33.2537 22.9573 33.825 23.2573 34.238 23.726C34.4604 23.9901 34.6251 24.298 34.7213 24.6296C34.8176 24.9613 34.8432 25.3094 34.7967 25.6516C34.7501 25.9938 34.6324 26.3224 34.4511 26.6163C34.2698 26.9102 34.0289 27.1629 33.744 27.358L30.784 29.374C29.08 30.5385 27.0639 31.161 25 31.16ZM7.79999 26.818L15.12 29.576C16.1656 29.9714 17.2741 30.1747 18.392 30.176H25C26.8638 30.1779 28.6846 29.6167 30.224 28.566L33.184 26.552C33.3543 26.4343 33.4981 26.2823 33.6063 26.1058C33.7146 25.9293 33.7847 25.7321 33.8124 25.5269C33.8401 25.3217 33.8246 25.1131 33.7671 24.9142C33.7095 24.7153 33.611 24.5307 33.478 24.372C33.2237 24.0908 32.8749 23.9129 32.4979 23.8724C32.121 23.8318 31.7423 23.9313 31.434 24.152L27.104 27.12C27.0214 27.1761 26.9238 27.2061 26.824 27.206H24.102H24.03H23.868H20.538C20.4121 27.198 20.2941 27.1424 20.2078 27.0504C20.1215 26.9585 20.0735 26.8371 20.0735 26.711C20.0735 26.5849 20.1215 26.4635 20.2078 26.3716C20.2941 26.2796 20.4121 26.224 20.538 26.216H23.868C24.2945 26.216 24.7035 26.0466 25.005 25.745C25.3066 25.4435 25.476 25.0345 25.476 24.608C25.476 24.1815 25.3066 23.7725 25.005 23.471C24.7035 23.1694 24.2945 23 23.868 23H20.168L18.382 23.038C18.3153 23.0405 18.2487 23.0289 18.1867 23.0041C18.1247 22.9793 18.0686 22.9418 18.022 22.894L15.672 20.54C15.1476 20.0132 14.5243 19.5954 13.8378 19.3105C13.1513 19.0256 12.4152 18.8793 11.672 18.88H7.79999V26.818Z"></path>
<path fill="#45443F" d="M25 31.46H18.4C17.1272 31.461 15.8648 31.2313 14.674 30.782L7.022 27.904C6.87127 27.8463 6.74152 27.7444 6.64979 27.6116C6.55806 27.4788 6.50863 27.3214 6.508 27.16V18.384C6.508 18.1718 6.59228 17.9683 6.74231 17.8183C6.89234 17.6683 7.09582 17.584 7.308 17.584H11.664C12.5781 17.5818 13.4835 17.7608 14.328 18.1106C15.1724 18.4604 15.9392 18.9741 16.584 19.622L18.694 21.732L20.15 21.7H23.868C24.3625 21.6998 24.8489 21.8262 25.2806 22.0674C25.7124 22.3086 26.0752 22.6563 26.3343 23.0775C26.5934 23.4987 26.7403 23.9793 26.7609 24.4734C26.7815 24.9675 26.6752 25.4587 26.452 25.9H26.58L30.706 23.072C31.2792 22.6716 31.98 22.4967 32.6742 22.5808C33.3683 22.6649 34.007 23.0022 34.468 23.528C34.7169 23.8244 34.9011 24.1697 35.0086 24.5415C35.116 24.9134 35.1445 25.3037 35.0922 25.6872C35.0398 26.0707 34.9077 26.439 34.7045 26.7685C34.5012 27.0979 34.2313 27.3812 33.912 27.6L30.952 29.616C29.1992 30.8165 27.1245 31.4592 25 31.46ZM7.302 18.2C7.24895 18.2 7.19808 18.2211 7.16057 18.2586C7.12307 18.2961 7.102 18.347 7.102 18.4V27.16C7.10235 27.1997 7.11453 27.2384 7.13697 27.2712C7.15941 27.304 7.1911 27.3293 7.228 27.344L14.876 30.22C16.002 30.6458 17.1962 30.8627 18.4 30.86H25C27.002 30.8622 28.958 30.2599 30.612 29.132L33.572 27.116C33.8237 26.9446 34.0365 26.7222 34.1967 26.4632C34.3569 26.2042 34.4608 25.9144 34.5017 25.6127C34.5426 25.3109 34.5197 25.0039 34.4343 24.7116C34.3489 24.4193 34.2029 24.1483 34.006 23.916C33.6416 23.5036 33.1378 23.2403 32.5912 23.1764C32.0446 23.1126 31.4936 23.2527 31.044 23.57L26.764 26.502H25.284L25.67 26.016C25.992 25.6122 26.1663 25.1105 26.164 24.594C26.1635 23.9847 25.9212 23.4005 25.4903 22.9697C25.0595 22.5388 24.4753 22.2965 23.866 22.296H20.158L18.45 22.334L16.158 20.052C15.5684 19.4617 14.8677 18.9941 14.0964 18.6762C13.325 18.3584 12.4983 18.1965 11.664 18.2H7.302ZM25 30.472H18.4C17.2467 30.4725 16.1028 30.2638 15.024 29.856L7.498 27.026V18.58H11.664C12.448 18.5778 13.2247 18.7312 13.9491 19.0312C14.6735 19.3313 15.3311 19.772 15.884 20.328L18.234 22.678C18.2708 22.7145 18.3202 22.7353 18.372 22.736L20.172 22.696H23.878C24.384 22.696 24.8693 22.897 25.2272 23.2548C25.585 23.6127 25.786 24.098 25.786 24.604C25.786 25.11 25.585 25.5953 25.2272 25.9532C24.8693 26.311 24.384 26.512 23.878 26.512H20.538C20.4938 26.5221 20.4544 26.5469 20.4261 26.5823C20.3978 26.6177 20.3824 26.6617 20.3824 26.707C20.3824 26.7523 20.3978 26.7963 20.4261 26.8317C20.4544 26.8672 20.4938 26.8919 20.538 26.902H23.868C23.916 26.902 23.966 26.902 24.012 26.902H24.042H24.072H26.826C26.865 26.9023 26.9032 26.8912 26.936 26.87L31.266 23.9C31.6361 23.6377 32.0899 23.5208 32.5407 23.5717C32.9914 23.6226 33.4077 23.8377 33.71 24.176C33.8722 24.3676 33.9918 24.5915 34.0608 24.8329C34.1298 25.0743 34.1465 25.3276 34.11 25.576C34.076 25.8222 33.9911 26.0585 33.8605 26.27C33.73 26.4814 33.5568 26.6633 33.352 26.804L30.4 28.81C28.8086 29.8954 26.9263 30.4747 25 30.472ZM8.096 26.612L15.222 29.294C16.2373 29.6785 17.3143 29.8744 18.4 29.872H25C26.8038 29.8738 28.5661 29.3308 30.056 28.314L33.014 26.3C33.1503 26.2063 33.2655 26.0852 33.3522 25.9442C33.4388 25.8033 33.495 25.6458 33.517 25.4819C33.539 25.318 33.5265 25.1512 33.4802 24.9925C33.4338 24.8337 33.3547 24.6864 33.248 24.56C33.041 24.3354 32.7586 24.1948 32.4545 24.1653C32.1505 24.1358 31.8463 24.2194 31.6 24.4L27.272 27.368C27.1392 27.4581 26.9824 27.5062 26.822 27.506H24.102C24.0754 27.5081 24.0486 27.5081 24.022 27.506C23.97 27.506 23.92 27.506 23.868 27.506H20.538C20.3425 27.484 20.162 27.3908 20.0309 27.2442C19.8998 27.0975 19.8273 26.9077 19.8273 26.711C19.8273 26.5143 19.8998 26.3245 20.0309 26.1778C20.162 26.0312 20.3425 25.938 20.538 25.916H23.868C24.2149 25.916 24.5476 25.7782 24.7929 25.5329C25.0382 25.2876 25.176 24.9549 25.176 24.608C25.176 24.2611 25.0382 23.9284 24.7929 23.6831C24.5476 23.4378 24.2149 23.3 23.868 23.3H20.168L18.388 23.338C18.2788 23.3416 18.1701 23.3223 18.0688 23.2813C17.9675 23.2403 17.8759 23.1786 17.8 23.1L15.46 20.752C14.9622 20.2515 14.37 19.8548 13.7176 19.5849C13.0653 19.3151 12.3659 19.1774 11.66 19.18H8.098L8.096 26.612Z"></path>
<path fill="#45443F" d="M7.30201 28.448H3.73801C3.60715 28.4475 3.48181 28.3952 3.38928 28.3027C3.29675 28.2102 3.24454 28.0848 3.24401 27.954V26.58C3.24401 26.4474 3.29669 26.3202 3.39046 26.2264C3.48422 26.1327 3.6114 26.08 3.74401 26.08C3.87662 26.08 4.00379 26.1327 4.09756 26.2264C4.19133 26.3202 4.24401 26.4474 4.24401 26.58V27.458H6.80001V18.088H4.23401V23.866C4.23401 23.9986 4.18133 24.1258 4.08756 24.2195C3.99379 24.3133 3.86662 24.366 3.73401 24.366C3.6014 24.366 3.47422 24.3133 3.38046 24.2195C3.28669 24.1258 3.23401 23.9986 3.23401 23.866V17.6C3.23454 17.4691 3.28675 17.3438 3.37928 17.2513C3.47181 17.1587 3.59715 17.1065 3.72801 17.106H7.30201C7.36714 17.1057 7.43169 17.1183 7.49197 17.143C7.55225 17.1677 7.60708 17.204 7.65332 17.2499C7.69956 17.2957 7.73632 17.3503 7.76149 17.4103C7.78666 17.4704 7.79975 17.5349 7.80001 17.6V27.962C7.79739 28.0921 7.7437 28.216 7.65053 28.307C7.55736 28.3979 7.43219 28.4485 7.30201 28.448Z"></path>
<path fill="#45443F" d="M7.30199 28.748H3.73799C3.52582 28.748 3.32233 28.6637 3.17231 28.5137C3.02228 28.3636 2.93799 28.1602 2.93799 27.948V26.58C2.93799 26.3678 3.02228 26.1643 3.17231 26.0143C3.32233 25.8643 3.52582 25.78 3.73799 25.78C3.95016 25.78 4.15365 25.8643 4.30368 26.0143C4.4537 26.1643 4.53799 26.3678 4.53799 26.58V27.158H6.51199V18.388H4.53399V23.866C4.53399 24.0782 4.4497 24.2816 4.29968 24.4317C4.14965 24.5817 3.94616 24.666 3.73399 24.666C3.52182 24.666 3.31833 24.5817 3.16831 24.4317C3.01828 24.2816 2.93399 24.0782 2.93399 23.866V17.6C2.93399 17.3878 3.01828 17.1843 3.16831 17.0343C3.31833 16.8843 3.52182 16.8 3.73399 16.8H7.30199C7.51416 16.8 7.71765 16.8843 7.86768 17.0343C8.01771 17.1843 8.10199 17.3878 8.10199 17.6V27.962C8.09832 28.1717 8.01242 28.3716 7.86278 28.5186C7.71315 28.6657 7.51176 28.748 7.30199 28.748ZM3.73799 26.384C3.68495 26.384 3.63408 26.4051 3.59657 26.4426C3.55906 26.4801 3.53799 26.5309 3.53799 26.584V27.958C3.53799 28.011 3.55906 28.0619 3.59657 28.0994C3.63408 28.1369 3.68495 28.158 3.73799 28.158H7.30199C7.35503 28.158 7.4059 28.1369 7.44341 28.0994C7.48092 28.0619 7.50199 28.011 7.50199 27.958V17.6C7.50199 17.5469 7.48092 17.4961 7.44341 17.4586C7.4059 17.4211 7.35503 17.4 7.30199 17.4H3.73799C3.68495 17.4 3.63408 17.4211 3.59657 17.4586C3.55906 17.4961 3.53799 17.5469 3.53799 17.6V23.874C3.53799 23.927 3.55906 23.9779 3.59657 24.0154C3.63408 24.0529 3.68495 24.074 3.73799 24.074C3.79103 24.074 3.8419 24.0529 3.87941 24.0154C3.91692 23.9779 3.93799 23.927 3.93799 23.874V17.788H7.10799V27.758H3.93399V26.58C3.93297 26.5283 3.91199 26.4791 3.87545 26.4425C3.83891 26.406 3.78965 26.385 3.73799 26.384Z"></path>
<path fill="#45443F" d="M24.8 26.97C24.6886 26.9703 24.5803 26.9329 24.4928 26.864C24.4053 26.795 24.3437 26.6984 24.318 26.59C24.2922 26.4816 24.3039 26.3676 24.3512 26.2667C24.3984 26.1658 24.4783 26.0838 24.578 26.034C24.7942 25.9273 24.9835 25.7731 25.1317 25.583C25.2799 25.3928 25.3833 25.1717 25.434 24.936C25.4608 24.815 25.5322 24.7086 25.634 24.638C27.2711 23.397 28.5707 21.7652 29.414 19.892C29.9666 18.7179 30.342 17.4683 30.528 16.184C30.5404 16.1 30.5741 16.0206 30.6259 15.9534C30.6777 15.8861 30.7459 15.8333 30.824 15.8C32.736 14.986 34.644 14.702 36.34 14.978C36.4571 14.9967 36.5635 15.0569 36.6399 15.1476C36.7163 15.2383 36.7575 15.3534 36.756 15.472C36.734 17.18 36.132 18.996 35.016 20.722C34.9417 20.8254 34.8305 20.8962 34.7054 20.9198C34.5803 20.9435 34.4509 20.9181 34.344 20.8489C34.2371 20.7798 34.1608 20.6722 34.1311 20.5484C34.1013 20.4247 34.1202 20.2942 34.184 20.184C35.088 18.784 35.634 17.282 35.746 15.9C34.2842 15.7951 32.8182 16.0349 31.466 16.6C31.2522 17.8815 30.8639 19.1278 30.312 20.304C29.4217 22.2722 28.0661 23.9944 26.362 25.322C26.3125 25.4899 26.2455 25.6521 26.162 25.806C26.8378 25.67 27.4989 25.4691 28.136 25.206L30.87 23.332C31.1404 23.1488 31.4431 23.0185 31.762 22.948C32.1704 22.5935 32.5571 22.2149 32.92 21.814C33.0081 21.7167 33.1312 21.6583 33.2623 21.6517C33.3934 21.6452 33.5217 21.6909 33.619 21.779C33.7163 21.867 33.7747 21.9902 33.7813 22.1212C33.7878 22.2523 33.7421 22.3807 33.654 22.478C33.2333 22.9413 32.7838 23.3775 32.308 23.784C32.2403 23.8407 32.159 23.8786 32.072 23.894C31.8422 23.9314 31.6232 24.0181 31.43 24.148L28.654 26.052C28.6251 26.0699 28.595 26.086 28.564 26.1C27.3785 26.6087 26.1123 26.9033 24.824 26.97H24.8Z"></path>
<path fill="#45443F" d="M24.8 27.27C24.6239 27.2649 24.4545 27.2018 24.318 27.0905C24.1814 26.9792 24.0854 26.826 24.0449 26.6546C24.0043 26.4832 24.0214 26.3032 24.0936 26.1425C24.1658 25.9819 24.2889 25.8495 24.444 25.766C24.6199 25.6796 24.7739 25.5545 24.8945 25.4C25.015 25.2454 25.099 25.0656 25.14 24.874C25.1807 24.6823 25.2903 24.5122 25.448 24.396C27.0449 23.1848 28.3123 21.5921 29.134 19.764C29.6747 18.6173 30.042 17.3966 30.224 16.142C30.2435 16.0068 30.2973 15.8788 30.3803 15.7703C30.4632 15.6617 30.5726 15.5763 30.698 15.522C32.664 14.686 34.628 14.394 36.38 14.68C36.5686 14.7115 36.7396 14.8095 36.8621 14.9563C36.9847 15.103 37.0506 15.2888 37.048 15.48C37.026 17.242 36.406 19.112 35.26 20.88C35.1356 21.0323 34.9594 21.1334 34.7651 21.164C34.5708 21.1946 34.3721 21.1526 34.2068 21.046C34.0416 20.9394 33.9214 20.7756 33.8692 20.586C33.817 20.3963 33.8365 20.1941 33.924 20.018C34.6941 18.86 35.2007 17.5471 35.408 16.172C34.1483 16.132 32.894 16.3533 31.724 16.822C31.5007 18.0709 31.1147 19.2853 30.576 20.434C29.7123 22.3325 28.4295 24.0106 26.824 25.342C27.2205 25.2305 27.6104 25.0969 27.992 24.942L30.698 23.086C30.9781 22.8957 31.2895 22.7562 31.618 22.674C31.9973 22.3416 32.3573 21.9877 32.696 21.614C32.8027 21.4994 32.9408 21.4186 33.093 21.3818C33.2452 21.3449 33.4049 21.3535 33.5523 21.4065C33.6996 21.4595 33.8282 21.5546 33.922 21.6801C34.0158 21.8055 34.0707 21.9556 34.08 22.112C34.0859 22.2155 34.0713 22.3191 34.0369 22.417C34.0026 22.5148 33.9493 22.6049 33.88 22.682C33.4512 23.1545 32.9929 23.5993 32.508 24.014C32.4 24.1058 32.2695 24.1672 32.13 24.192C31.9416 24.2197 31.7615 24.2879 31.602 24.392L28.828 26.296C28.7829 26.3253 28.7354 26.3507 28.686 26.372C27.4665 26.8938 26.1646 27.1965 24.84 27.266L24.8 27.27ZM35.034 15.174C33.6208 15.1963 32.2266 15.5023 30.934 16.074C30.9035 16.0876 30.8769 16.1087 30.8567 16.1352C30.8364 16.1618 30.8231 16.193 30.818 16.226C30.6284 17.5421 30.2442 18.8228 29.678 20.026C28.8132 21.9455 27.4805 23.6172 25.802 24.888C25.7634 24.9158 25.7369 24.9573 25.728 25.004C25.669 25.2843 25.5471 25.5475 25.3714 25.7738C25.1957 26 24.9709 26.1834 24.714 26.31C24.6745 26.3306 24.6429 26.3639 24.6245 26.4044C24.606 26.445 24.6016 26.4906 24.612 26.534C24.6239 26.5749 24.6486 26.6109 24.6824 26.6368C24.7162 26.6627 24.7574 26.6771 24.8 26.678H24.822C26.0702 26.6104 27.2969 26.324 28.446 25.832L28.484 25.812L31.258 23.908C31.4878 23.7546 31.7475 23.6517 32.02 23.606C32.0532 23.6003 32.0843 23.5858 32.11 23.564C32.5761 23.1658 33.017 22.739 33.43 22.286C33.464 22.2475 33.4819 22.1973 33.48 22.146C33.4772 22.0941 33.4542 22.0453 33.416 22.01C33.377 21.9764 33.3266 21.959 33.2752 21.9617C33.2238 21.9643 33.1754 21.9866 33.14 22.024C32.7691 22.4328 32.3744 22.8195 31.958 23.182L31.9 23.232L31.828 23.248C31.5418 23.3085 31.2702 23.424 31.028 23.588L28.238 25.49C27.583 25.7628 26.9032 25.9718 26.208 26.114L25.586 26.24L25.884 25.68C25.9558 25.5443 26.0135 25.4015 26.056 25.254L26.084 25.158L26.164 25.098C27.8281 23.799 29.152 22.1155 30.022 20.192C30.562 19.0406 30.9415 17.8205 31.15 16.566L31.2 16.4L31.358 16.336C32.7518 15.7474 34.2646 15.4952 35.774 15.6L36.068 15.628L36.044 15.924C35.93 17.35 35.358 18.924 34.444 20.348C34.4169 20.3915 34.4076 20.4438 34.418 20.494C34.4228 20.519 34.4327 20.5428 34.4472 20.5638C34.4616 20.5848 34.4803 20.6026 34.502 20.616C34.5458 20.6443 34.5989 20.6543 34.65 20.644C34.675 20.639 34.6987 20.629 34.7196 20.6145C34.7406 20.6001 34.7584 20.5815 34.772 20.56C35.858 18.88 36.442 17.12 36.464 15.468C36.4648 15.4206 36.4487 15.3745 36.4187 15.3379C36.3886 15.3013 36.3466 15.2765 36.3 15.268C35.8839 15.2025 35.4632 15.1711 35.042 15.174H35.034Z"></path>
<path fill="#45443F" d="M25.926 25.532C25.8311 25.5319 25.7382 25.5048 25.658 25.454C25.5741 25.3999 25.5085 25.3217 25.4699 25.2295C25.4314 25.1374 25.4216 25.0358 25.442 24.938C25.4641 24.828 25.4755 24.7162 25.476 24.604C25.475 24.2309 25.3417 23.8702 25.1 23.586C25.0409 23.5146 25.003 23.4279 24.9906 23.336C24.9782 23.2441 24.9919 23.1506 25.03 23.066C25.7415 21.4345 26.1027 19.6719 26.09 17.892C26.0943 16.5941 25.9063 15.3028 25.532 14.06C25.5075 13.9785 25.5044 13.8922 25.523 13.8092C25.5416 13.7261 25.5812 13.6493 25.638 13.586C27.026 12.04 28.638 10.976 30.29 10.51C30.4041 10.4774 30.526 10.487 30.6336 10.5369C30.7412 10.5869 30.8273 10.6739 30.876 10.782C32.076 13.432 31.858 16.994 30.312 20.31C29.3983 22.3347 27.9905 24.0973 26.218 25.436C26.1335 25.4985 26.0311 25.5322 25.926 25.532ZM26.048 23.206C26.2119 23.4547 26.331 23.7302 26.4 24.02C27.6743 22.8627 28.6998 21.4582 29.414 19.892C30.74 17.048 31.014 13.918 30.14 11.596C28.772 12.1224 27.546 12.9614 26.56 14.046C26.9082 15.2982 27.0832 16.5923 27.08 17.892C27.0901 19.7122 26.7393 21.5162 26.048 23.2V23.206Z"></path>
<path fill="#45443F" d="M25.926 25.832C25.8083 25.831 25.6922 25.8041 25.5861 25.7531C25.48 25.7021 25.3865 25.6283 25.3121 25.537C25.2378 25.4457 25.1846 25.3391 25.1562 25.2248C25.1278 25.1106 25.125 24.9915 25.148 24.876C25.166 24.7864 25.1754 24.6954 25.176 24.604C25.1739 24.3007 25.0656 24.0078 24.87 23.776C24.7754 23.6613 24.7146 23.5225 24.6944 23.3752C24.6743 23.2279 24.6956 23.0779 24.756 22.942C25.4546 21.3506 25.8103 19.63 25.8 17.892C25.8041 16.624 25.6208 15.3624 25.256 14.148C25.2169 14.017 25.212 13.8783 25.2417 13.7449C25.2715 13.6115 25.3349 13.4879 25.426 13.386C26.842 11.8 28.5 10.702 30.2 10.22C30.3834 10.1696 30.5788 10.1863 30.751 10.2669C30.9233 10.3475 31.0612 10.4869 31.14 10.66C32.37 13.388 32.158 17.042 30.576 20.436C29.6442 22.505 28.2084 24.3073 26.4 25.678C26.2624 25.7785 26.0964 25.8325 25.926 25.832ZM30.424 10.8C30.4068 10.7972 30.3892 10.7972 30.372 10.8C28.772 11.252 27.212 12.284 25.86 13.79C25.8384 13.8152 25.8235 13.8455 25.8165 13.8779C25.8095 13.9104 25.8107 13.9441 25.82 13.976C26.2055 15.2456 26.401 16.5652 26.4 17.892C26.4117 19.7187 26.0382 21.5273 25.304 23.2C25.2902 23.2327 25.2854 23.2684 25.2899 23.3035C25.2945 23.3387 25.3083 23.372 25.33 23.4C25.6149 23.7353 25.7728 24.1601 25.776 24.6C25.7757 24.7343 25.7623 24.8683 25.736 25C25.7295 25.0381 25.7341 25.0772 25.7494 25.1127C25.7647 25.1482 25.7899 25.1785 25.822 25.2C25.8547 25.2215 25.8929 25.233 25.932 25.233C25.9711 25.233 26.0093 25.2215 26.042 25.2C27.7714 23.8929 29.1464 22.1741 30.042 20.2C31.552 16.962 31.762 13.492 30.604 10.922C30.589 10.8865 30.564 10.8561 30.532 10.8344C30.5001 10.8128 30.4626 10.8008 30.424 10.8ZM26.224 24.588L26.11 24.098C26.0481 23.8425 25.9425 23.5996 25.798 23.38L25.712 23.246L25.774 23.1C26.4461 21.4493 26.7859 19.6822 26.774 17.9C26.7772 16.6279 26.6056 15.3614 26.264 14.136L26.218 13.972L26.334 13.848C27.3522 12.727 28.6196 11.8611 30.034 11.32L30.312 11.222L30.416 11.498C31.316 13.918 31.042 17.098 29.68 20.026C28.9489 21.6257 27.9011 23.0606 26.6 24.244L26.224 24.588ZM26.386 23.188C26.4426 23.2863 26.4934 23.3878 26.538 23.492C27.622 22.419 28.5029 21.1587 29.138 19.772C30.38 17.11 30.678 14.23 29.954 11.994C28.7958 12.4898 27.7526 13.2198 26.89 14.138C27.2152 15.3655 27.3785 16.6302 27.376 17.9C27.385 19.7072 27.0482 21.4993 26.384 23.18L26.386 23.188Z"></path>
<path fill="#45443F" d="M25.482 23.764C25.4091 23.7645 25.337 23.7487 25.271 23.718C25.2049 23.6872 25.1465 23.6421 25.1 23.586C24.9519 23.401 24.7645 23.2512 24.5515 23.1474C24.3384 23.0437 24.105 22.9885 23.868 22.986H20.688C20.5865 22.9862 20.4874 22.9549 20.4043 22.8966C20.3212 22.8382 20.2582 22.7556 20.224 22.66C19.6715 21.1314 19.3926 19.5174 19.4 17.892C19.4 14.232 20.714 10.914 22.916 9.01799C23.0057 8.94044 23.1204 8.89777 23.239 8.89777C23.3576 8.89777 23.4722 8.94044 23.562 9.01799C25.762 10.914 27.078 14.232 27.078 17.892C27.0909 19.8119 26.6998 21.7131 25.93 23.472C25.8961 23.5489 25.8429 23.6158 25.7757 23.6662C25.7084 23.7167 25.6293 23.749 25.546 23.76L25.482 23.764ZM21.04 22H23.868C24.3743 22.0001 24.8692 22.1504 25.29 22.432C25.8265 20.9767 26.0974 19.437 26.09 17.886C26.09 14.748 25.006 11.8 23.24 10.058C21.474 11.8 20.4 14.754 20.4 17.892C20.395 19.2865 20.611 20.6731 21.04 22Z"></path>
<path fill="#45443F" d="M25.482 24.064C25.365 24.0646 25.2493 24.039 25.1434 23.9892C25.0376 23.9394 24.9441 23.8665 24.87 23.776C24.7489 23.6274 24.5964 23.5074 24.4236 23.4244C24.2507 23.3414 24.0617 23.2976 23.87 23.296H20.69C20.5273 23.2952 20.3688 23.2448 20.2355 23.1515C20.1022 23.0582 20.0005 22.9266 19.944 22.774C19.3791 21.2087 19.0948 19.5561 19.104 17.892C19.104 14.146 20.458 10.744 22.724 8.79001C22.8688 8.6666 23.0528 8.59882 23.243 8.59882C23.4332 8.59882 23.6172 8.6666 23.762 8.79001C26.028 10.742 27.382 14.144 27.382 17.89C27.3935 19.8552 26.9908 21.8008 26.2 23.6C26.1441 23.7231 26.058 23.8301 25.9495 23.9109C25.8411 23.9917 25.714 24.0437 25.58 24.062C25.5474 24.0645 25.5147 24.0652 25.482 24.064ZM23.24 9.20001C23.194 9.20039 23.1495 9.21663 23.114 9.24601C20.978 11.088 19.702 14.32 19.702 17.894C19.6915 19.4876 19.9624 21.0705 20.502 22.57C20.5163 22.607 20.5412 22.6389 20.5736 22.6617C20.606 22.6844 20.6444 22.6971 20.684 22.698H23.864C24.1444 22.6993 24.421 22.7625 24.6741 22.8831C24.9272 23.0038 25.1505 23.179 25.328 23.396C25.3493 23.4207 25.3763 23.4397 25.4066 23.4516C25.4369 23.4634 25.4697 23.4677 25.502 23.464C25.535 23.4606 25.5665 23.4484 25.5933 23.4287C25.62 23.409 25.641 23.3825 25.654 23.352C26.4067 21.6315 26.789 19.7719 26.776 17.894C26.776 14.32 25.5 11.094 23.364 9.24801C23.3294 9.21834 23.2856 9.2014 23.24 9.20001ZM25.44 22.898L25.126 22.698C24.7544 22.4491 24.3173 22.3161 23.87 22.316H20.824L20.754 22.116C20.3133 20.7597 20.0899 19.3422 20.092 17.916C20.092 14.694 21.19 11.688 23.03 9.87601L23.23 9.67601L23.43 9.87601C25.27 11.688 26.37 14.694 26.37 17.916C26.3763 19.5032 26.0986 21.0787 25.55 22.568L25.44 22.898ZM21.26 21.698H23.86C24.2971 21.6974 24.7283 21.798 25.12 21.992C25.5683 20.6715 25.798 19.2866 25.8 17.892C25.8 14.954 24.852 12.216 23.25 10.492C21.65 12.212 20.702 14.95 20.702 17.892C20.6972 19.1839 20.8846 20.4693 21.258 21.706L21.26 21.698Z"></path>
<path fill="#45443F" d="M18.372 23.034C18.3071 23.0342 18.2427 23.0216 18.1827 22.9969C18.1226 22.9722 18.068 22.9358 18.022 22.89L17.086 21.956C17.0594 21.9294 17.036 21.8999 17.016 21.868C16.7037 21.3657 16.4212 20.8455 16.17 20.31C14.624 17 14.412 13.432 15.6 10.782C15.6487 10.6705 15.7369 10.581 15.8478 10.5308C15.9586 10.4805 16.0841 10.4731 16.2 10.51C17.854 10.976 19.462 12.04 20.852 13.586C20.909 13.6492 20.9486 13.7261 20.9668 13.8092C20.985 13.8923 20.9813 13.9788 20.956 14.06C20.5833 15.3031 20.396 16.5943 20.4 17.892C20.3945 19.4042 20.6516 20.9058 21.16 22.33C21.1878 22.4048 21.197 22.4852 21.187 22.5643C21.1769 22.6434 21.1478 22.719 21.1022 22.7844C21.0566 22.8499 20.9959 22.9033 20.9251 22.9401C20.8544 22.977 20.7758 22.9962 20.696 22.996H20.176L18.39 23.034H18.372ZM17.828 21.296L18.572 22.04L20.002 22.01C19.2302 19.4152 19.2024 16.6558 19.922 14.046C18.9356 12.9628 17.7096 12.1252 16.342 11.6C15.476 13.922 15.742 17.052 17.066 19.896C17.2929 20.3769 17.5473 20.8444 17.828 21.296Z"></path>
<path fill="#45443F" d="M18.386 23.334H18.372C18.1614 23.3336 17.9595 23.2503 17.81 23.102L16.874 22.168C16.8319 22.1246 16.7943 22.0771 16.762 22.026C16.4423 21.5139 16.1537 20.9829 15.898 20.436C14.316 17.036 14.098 13.388 15.332 10.658C15.4112 10.4848 15.5496 10.3456 15.7222 10.2653C15.8949 10.185 16.0906 10.1689 16.274 10.22C17.982 10.702 19.64 11.798 21.074 13.386C21.1651 13.4879 21.2285 13.6114 21.2583 13.7448C21.288 13.8782 21.2831 14.017 21.244 14.148C20.457 16.795 20.527 19.6231 21.444 22.228C21.4867 22.3481 21.5001 22.4766 21.4831 22.6029C21.466 22.7292 21.4191 22.8497 21.3461 22.9541C21.2731 23.0586 21.1762 23.1442 21.0635 23.2036C20.9508 23.2631 20.8255 23.2948 20.698 23.296H20.178L18.386 23.334ZM16.056 10.8C16.0188 10.801 15.9826 10.8124 15.9515 10.8329C15.9204 10.8534 15.8956 10.8822 15.88 10.916C14.722 13.486 14.932 16.956 16.442 20.194C16.6872 20.7185 16.9644 21.2275 17.272 21.718C17.279 21.7305 17.2878 21.7419 17.298 21.752L18.234 22.688C18.2711 22.7237 18.3205 22.7438 18.372 22.744L20.152 22.706H20.678C20.7094 22.7055 20.7402 22.6977 20.768 22.6831C20.7958 22.6685 20.8198 22.6476 20.838 22.622C20.8556 22.5962 20.8669 22.5667 20.8711 22.5358C20.8753 22.5049 20.8722 22.4735 20.862 22.444C19.9026 19.7161 19.8326 16.7542 20.662 13.984C20.671 13.9519 20.6719 13.9181 20.6646 13.8857C20.6573 13.8532 20.6419 13.823 20.62 13.798C19.27 12.282 17.71 11.25 16.11 10.8C16.0921 10.7971 16.0739 10.7971 16.056 10.8ZM18.456 22.354L17.578 21.464C17.2911 20.9974 17.0313 20.5146 16.8 20.018C15.44 17.098 15.164 13.91 16.066 11.49L16.17 11.214L16.448 11.312C17.8594 11.8545 19.1239 12.7203 20.14 13.84L20.256 13.964L20.21 14.128C19.8698 15.3536 19.6989 16.62 19.702 17.892C19.697 19.2569 19.8944 20.615 20.288 21.922L20.404 22.3L18.456 22.354ZM18.07 21.12L18.7 21.748L19.61 21.728C18.9462 19.2429 18.9407 16.6278 19.594 14.14C18.7295 13.2179 17.6836 12.4845 16.522 11.986C15.8 14.222 16.096 17.102 17.338 19.764C17.5542 20.2261 17.7966 20.6755 18.064 21.11L18.07 21.12Z"></path>
<path fill="#45443F" d="M17.436 22.1C17.3049 22.1001 17.179 22.0484 17.086 21.956L15.672 20.54C15.1476 20.0132 14.5243 19.5954 13.8378 19.3105C13.1513 19.0256 12.4152 18.8793 11.672 18.88H10.822C10.7221 18.88 10.6246 18.8498 10.5422 18.7934C10.4597 18.737 10.3962 18.6571 10.36 18.564C9.96725 17.5782 9.75193 16.5308 9.72399 15.47C9.72292 15.3515 9.76427 15.2366 9.84057 15.146C9.91687 15.0554 10.0231 14.9951 10.14 14.976C11.838 14.7 13.74 14.976 15.656 15.798C15.7343 15.8315 15.8027 15.8846 15.8546 15.9522C15.9064 16.0198 15.94 16.0997 15.952 16.184C16.1391 17.468 16.5144 18.7175 17.066 19.892C17.3046 20.391 17.5717 20.8758 17.866 21.344C17.9128 21.4189 17.9387 21.5049 17.941 21.5932C17.9433 21.6814 17.9219 21.7687 17.879 21.8459C17.8361 21.9231 17.7734 21.9874 17.6972 22.0321C17.621 22.0768 17.5343 22.1002 17.446 22.1H17.436ZM11.168 17.9H11.664C13.1397 17.8983 14.5733 18.3912 15.736 19.3C15.4064 18.4263 15.1652 17.5218 15.016 16.6C13.6634 16.0332 12.197 15.7907 10.734 15.892C10.7938 16.5736 10.9397 17.245 11.168 17.89V17.9Z"></path>
<path fill="#45443F" d="M17.436 22.4C17.3314 22.4005 17.2279 22.38 17.1314 22.3398C17.0348 22.2996 16.9473 22.2405 16.874 22.166L15.46 20.752C14.9622 20.2515 14.37 19.8548 13.7176 19.5849C13.0653 19.3151 12.3659 19.1774 11.66 19.18H10.822C10.662 19.1791 10.506 19.1301 10.374 19.0396C10.2421 18.949 10.1404 18.821 10.082 18.672C9.67495 17.6527 9.45216 16.5692 9.42399 15.472C9.42138 15.2808 9.48731 15.0951 9.60985 14.9483C9.73238 14.8016 9.90343 14.7035 10.092 14.672C11.846 14.386 13.81 14.672 15.774 15.514C15.8997 15.568 16.0095 15.6534 16.0929 15.7619C16.1762 15.8705 16.2303 15.9986 16.25 16.134C16.4322 17.3884 16.7989 18.6089 17.338 19.756C17.5665 20.2455 17.825 20.7204 18.112 21.178C18.1871 21.2989 18.2285 21.4376 18.2321 21.5799C18.2357 21.7221 18.2013 21.8628 18.1324 21.9873C18.0635 22.1118 17.9627 22.2157 17.8402 22.2882C17.7178 22.3608 17.5783 22.3994 17.436 22.4ZM11.436 15.174C11.0174 15.173 10.5993 15.2057 10.186 15.272C10.1394 15.2805 10.0973 15.3053 10.0673 15.3419C10.0373 15.3786 10.0212 15.4247 10.022 15.472C10.0507 16.4953 10.2599 17.5055 10.64 18.456C10.6549 18.4922 10.68 18.5233 10.7124 18.5453C10.7447 18.5674 10.7829 18.5794 10.822 18.58H11.664C12.448 18.5778 13.2247 18.7312 13.9491 19.0312C14.6735 19.3313 15.3311 19.7721 15.884 20.328L17.3 21.744C17.3344 21.7765 17.3792 21.7957 17.4264 21.7983C17.4737 21.8008 17.5203 21.7866 17.558 21.758C17.5946 21.7276 17.6191 21.6851 17.6272 21.6381C17.6353 21.5912 17.6263 21.5429 17.602 21.502C17.3056 21.024 17.0385 20.5284 16.802 20.018C16.2377 18.8143 15.8543 17.5338 15.664 16.218C15.6589 16.185 15.6456 16.1538 15.6253 16.1273C15.6051 16.1007 15.5785 16.0797 15.548 16.066C14.2519 15.4954 12.854 15.1921 11.438 15.174H11.436ZM16.39 20.174L15.55 19.52C14.439 18.6572 13.0706 18.1924 11.664 18.2H10.954L10.884 18C10.6471 17.3285 10.4966 16.6295 10.436 15.92L10.412 15.626L10.706 15.6C12.2167 15.4931 13.7313 15.7424 15.128 16.328L15.284 16.392L15.312 16.558C15.4598 17.4517 15.6956 18.3287 16.016 19.176L16.39 20.174ZM11.384 17.6H11.664C12.8931 17.595 14.101 17.9196 15.162 18.54C14.9892 17.9804 14.851 17.4106 14.748 16.834C13.5778 16.366 12.3237 16.1447 11.064 16.184C11.1273 16.6648 11.2344 17.1387 11.384 17.6Z"></path>
</svg>
